<svg width="1882" height="332" viewBox="0 0 1882 332" fill="none" xmlns="http://www.w3.org/2000/svg">
<path d="M358.736 229.664C358.736 246.593 354.696 260.085 346.704 269.729C338.623 279.461 325.882 284.416 308.807 284.416C291.731 284.416 278.991 279.476 270.91 269.729C262.918 260.1 258.877 246.622 258.877 229.664V47.2286H209.184V229.679C209.184 261.235 217.618 286.289 234.266 304.102C250.841 321.885 275.923 330.895 308.807 330.895C341.69 330.895 366.758 321.885 383.347 304.102C399.995 286.289 408.43 261.25 408.43 229.679V47.2286H358.736V229.679V229.664Z" stroke="white"/>
<path d="M822.508 306.638H818.305L772.918 47.2286H678.588V325.262H728.267V65.8527H732.47L777.872 325.262H872.187V47.2286H822.508V306.638Z" stroke="white"/>
<path d="M971.563 47.2286H921.884V325.262H971.563V47.2286Z" stroke="white"/>
<path d="M568.4 213.314C576.79 212.238 584.502 210.262 591.286 207.224C601.711 202.535 610.514 196.238 617.445 188.526C624.375 180.829 629.669 171.967 633.193 162.175C636.732 152.355 638.517 142.21 638.517 131.991V127.169C638.517 117.23 636.718 107.35 633.193 97.795C629.684 88.2986 624.39 79.6871 617.459 72.2257C610.573 64.8085 601.77 58.7184 591.3 54.1325C580.816 49.5613 568.311 47.2462 554.17 47.2462H451.922V325.265H501.616V214.302H506.172L588.705 325.265H647.541V321.18L568.4 217.06V213.299V213.314ZM501.616 167.027V94.5067H548.95C561.13 94.5067 570.922 97.913 578.044 104.622C585.181 111.361 588.808 120.164 588.808 130.781C588.808 141.399 585.181 150.202 578.044 156.926C570.907 163.635 561.115 167.042 548.95 167.042H501.616V167.027Z" stroke="white"/>
<path d="M1793.66 113.143C1797 112.715 1800.05 111.933 1802.75 110.724C1806.89 108.866 1810.39 106.36 1813.13 103.307C1815.89 100.255 1817.98 96.7305 1819.38 92.8523C1820.78 88.9594 1821.49 84.9338 1821.49 80.8787V78.9617C1821.49 75.0246 1820.78 71.1022 1819.38 67.2978C1817.99 63.5228 1815.89 60.1165 1813.13 57.1526C1810.39 54.2034 1806.89 51.7851 1802.75 49.9714C1798.59 48.1576 1793.62 47.2286 1788.02 47.2286H1747.44V157.572H1767.17V113.526H1768.98L1801.74 157.572H1825.1V155.95L1793.69 114.632V113.143H1793.66ZM1767.15 94.7693V65.9854H1785.94C1790.77 65.9854 1794.65 67.3272 1797.48 69.9963C1800.31 72.6653 1801.76 76.16 1801.76 80.3773C1801.76 84.5947 1800.31 88.0894 1797.48 90.7584C1794.65 93.4274 1790.77 94.7693 1785.94 94.7693H1767.15Z" stroke="white"/>
<path d="M1873.13 62.817C1867.81 50.3715 1860.55 39.5775 1851.38 30.4056C1842.23 21.2484 1831.42 13.9934 1818.99 8.67019C1806.53 3.33219 1793.33 0.648438 1779.39 0.648438C1765.46 0.648438 1752.25 3.33219 1739.8 8.67019C1727.35 13.9934 1716.56 21.2484 1707.4 30.4056C1698.23 39.5775 1690.99 50.3862 1685.65 62.817C1680.32 75.2773 1677.65 88.4601 1677.65 102.41C1677.65 116.359 1680.32 129.557 1685.65 142.002C1690.99 154.448 1698.23 165.257 1707.4 174.414C1716.56 183.571 1727.37 190.826 1739.8 196.164C1752.26 201.487 1765.46 204.156 1779.39 204.156C1793.33 204.156 1806.54 201.487 1818.99 196.164C1831.43 190.826 1842.23 183.571 1851.38 174.414C1860.55 165.257 1867.81 154.433 1873.13 142.002C1878.47 129.557 1881.14 116.345 1881.14 102.41C1881.14 88.4748 1878.47 75.2625 1873.13 62.817ZM1856.06 135.028C1851.75 145.143 1845.88 153.932 1838.41 161.423C1830.93 168.899 1822.13 174.782 1812.01 179.088C1801.88 183.379 1791.01 185.517 1779.38 185.517C1767.74 185.517 1756.88 183.379 1746.76 179.088C1736.63 174.782 1727.86 168.899 1720.37 161.423C1712.89 153.946 1706.99 145.143 1702.7 135.028C1698.41 124.912 1696.26 114.044 1696.26 102.41C1696.26 90.7752 1698.41 79.9075 1702.7 69.7771C1706.99 59.6614 1712.89 50.8729 1720.37 43.382C1727.84 35.9058 1736.63 30.0222 1746.76 25.7312C1756.88 21.4254 1767.74 19.2872 1779.38 19.2872C1791.01 19.2872 1801.88 21.4254 1812.01 25.7312C1822.13 30.0222 1830.91 35.9058 1838.41 43.382C1845.88 50.8581 1851.75 59.6614 1856.06 69.7771C1860.35 79.9075 1862.5 90.7752 1862.5 102.41C1862.5 114.044 1860.35 124.912 1856.06 135.028Z" stroke="white"/>
<path d="M94.5704 170.607L190.566 51.0921V47.2286H131.877L53.3262 144.905H50.8194V47.2286H1.14062L1.14062 325.262H50.8194V202.901H53.1346L144.146 325.262H202.982V321.177L94.5704 178.555V170.607Z" stroke="white"/>
<path d="M1322.03 41.6146C1290.22 41.6146 1265.02 51.5828 1247.11 71.2095C1229.12 90.8952 1220 119.06 1220 154.892V217.592C1220 254.501 1229.13 282.916 1247.09 302.071C1265.02 321.196 1290.24 330.884 1322.04 330.884C1353.85 330.884 1379.04 321.196 1397 302.071C1414.96 282.916 1424.09 254.501 1424.09 217.592V154.892C1424.09 119.06 1414.96 90.8952 1396.98 71.2095C1379.05 51.568 1353.85 41.6146 1322.06 41.6146H1322.03ZM1374.38 220.821C1374.38 230.303 1373.55 239.076 1371.92 246.907C1370.26 254.884 1367.34 261.859 1363.2 267.639C1359.04 273.479 1353.54 278.065 1346.88 281.25C1340.27 284.42 1331.91 286.027 1322.03 286.027C1312.15 286.027 1303.79 284.42 1297.18 281.25C1290.52 278.065 1285.02 273.479 1280.86 267.639C1276.72 261.859 1273.8 254.884 1272.14 246.907C1270.51 239.047 1269.7 230.273 1269.7 220.821V151.678C1269.7 142.742 1270.66 134.233 1272.56 126.359C1274.47 118.396 1277.53 111.436 1281.67 105.671C1285.81 99.8607 1291.28 95.1568 1297.95 91.6915C1304.6 88.2262 1312.71 86.4715 1322.04 86.4715C1331.38 86.4715 1339.47 88.2262 1346.14 91.6915C1352.79 95.1568 1358.28 99.8607 1362.42 105.685C1366.53 111.422 1369.6 118.382 1371.53 126.359C1373.45 134.263 1374.41 142.786 1374.41 151.678V220.821H1374.38Z" stroke="white"/>
<path d="M1546.52 306.638H1542.78L1487.7 47.2286H1436.49L1499.25 325.262H1590.05L1652.79 47.2286H1601.58L1546.52 306.638Z" stroke="white"/>
<path d="M1114.68 170.607L1210.68 51.0921V47.2286H1151.99L1073.44 144.905H1070.95V47.2286H1021.25V325.262H1070.95V202.901H1073.25L1164.26 325.262H1223.09V321.177L1114.68 178.555V170.607Z" stroke="white"/>
</svg>
