<svg width="1882" height="332" fill="none" xmlns="http://www.w3.org/2000/svg"><path d="M358.736 229.664c0 16.929-4.04 30.421-12.032 40.065-8.081 9.732-20.822 14.687-37.897 14.687-17.076 0-29.816-4.94-37.897-14.687-7.992-9.629-12.033-23.107-12.033-40.065V47.229h-49.693v182.45c0 31.556 8.434 56.61 25.082 74.423 16.575 17.783 41.657 26.793 74.541 26.793 32.883 0 57.951-9.01 74.54-26.793 16.648-17.813 25.083-42.852 25.083-74.423V47.229h-49.694v182.45-.015ZM822.508 306.638h-4.203l-45.387-259.41h-94.33v278.034h49.679V65.852h4.203l45.402 259.41h94.315V47.229h-49.679v259.409ZM971.563 47.229h-49.679v278.033h49.679V47.229ZM568.4 213.314c8.39-1.076 16.102-3.052 22.886-6.09 10.425-4.689 19.228-10.986 26.159-18.698 6.93-7.697 12.224-16.559 15.748-26.351 3.539-9.82 5.324-19.965 5.324-30.184v-4.822c0-9.939-1.799-19.819-5.324-29.374a76.219 76.219 0 0 0-15.734-25.57c-6.886-7.416-15.689-13.507-26.159-18.092-10.484-4.572-22.989-6.887-37.13-6.887H451.922v278.019h49.694V214.302h4.556l82.533 110.963h58.836v-4.085L568.4 217.06v-3.761.015Zm-66.784-46.287v-72.52h47.334c12.18 0 21.972 3.406 29.094 10.115 7.137 6.739 10.764 15.542 10.764 26.159 0 10.618-3.627 19.421-10.764 26.145-7.137 6.709-16.929 10.116-29.094 10.116h-47.334v-.015ZM1793.66 113.143c3.34-.428 6.39-1.21 9.09-2.419 4.14-1.858 7.64-4.364 10.38-7.417 2.76-3.052 4.85-6.576 6.25-10.455a35.285 35.285 0 0 0 2.11-11.973v-1.917c0-3.937-.71-7.86-2.11-11.664a30.03 30.03 0 0 0-6.25-10.145c-2.74-2.95-6.24-5.368-10.38-7.182-4.16-1.813-9.13-2.742-14.73-2.742h-40.58v110.343h19.73v-44.046h1.81l32.76 44.046h23.36v-1.622l-31.41-41.318v-1.489h-.03Zm-26.51-18.374V65.985h18.79c4.83 0 8.71 1.342 11.54 4.011 2.83 2.67 4.28 6.164 4.28 10.381 0 4.218-1.45 7.712-4.28 10.381-2.83 2.67-6.71 4.011-11.54 4.011h-18.79Z" stroke="#fff"/><path d="M1873.13 62.817c-5.32-12.446-12.58-23.24-21.75-32.411-9.15-9.158-19.96-16.413-32.39-21.736-12.46-5.338-25.66-8.022-39.6-8.022-13.93 0-27.14 2.684-39.59 8.022-12.45 5.323-23.24 12.578-32.4 21.736-9.17 9.172-16.41 19.98-21.75 32.411-5.33 12.46-8 25.643-8 39.593 0 13.949 2.67 27.147 8 39.592 5.34 12.446 12.58 23.255 21.75 32.412 9.16 9.157 19.97 16.412 32.4 21.75 12.46 5.323 25.66 7.992 39.59 7.992 13.94 0 27.15-2.669 39.6-7.992 12.44-5.338 23.24-12.593 32.39-21.75 9.17-9.157 16.43-19.981 21.75-32.412 5.34-12.445 8.01-25.657 8.01-39.592 0-13.935-2.67-27.147-8.01-39.593Zm-17.07 72.211c-4.31 10.115-10.18 18.904-17.65 26.395-7.48 7.476-16.28 13.359-26.4 17.665-10.13 4.291-21 6.429-32.63 6.429-11.64 0-22.5-2.138-32.62-6.429-10.13-4.306-18.9-10.189-26.39-17.665-7.48-7.477-13.38-16.28-17.67-26.395-4.29-10.116-6.44-20.984-6.44-32.618 0-11.635 2.15-22.502 6.44-32.633 4.29-10.116 10.19-18.904 17.67-26.395 7.47-7.476 16.26-13.36 26.39-17.65 10.12-4.307 20.98-6.445 32.62-6.445 11.63 0 22.5 2.138 32.63 6.444 10.12 4.291 18.9 10.175 26.4 17.651 7.47 7.476 13.34 16.28 17.65 26.395 4.29 10.13 6.44 20.998 6.44 32.633 0 11.634-2.15 22.502-6.44 32.618ZM94.57 170.607l95.996-119.515V47.23h-58.689l-78.55 97.676h-2.508V47.229H1.141v278.033h49.678V202.901h2.316l91.011 122.361h58.836v-4.085L94.57 178.555v-7.948ZM1322.03 41.615c-31.81 0-57.01 9.968-74.92 29.595-17.99 19.685-27.11 47.85-27.11 83.682v62.7c0 36.909 9.13 65.324 27.09 84.479 17.93 19.125 43.15 28.813 74.95 28.813 31.81 0 57-9.688 74.96-28.813 17.96-19.155 27.09-47.57 27.09-84.479v-62.7c0-35.832-9.13-63.997-27.11-83.682-17.93-19.642-43.13-29.595-74.92-29.595h-.03Zm52.35 179.206c0 9.482-.83 18.255-2.46 26.086-1.66 7.977-4.58 14.952-8.72 20.732-4.16 5.84-9.66 10.426-16.32 13.611-6.61 3.17-14.97 4.777-24.85 4.777s-18.24-1.607-24.85-4.777c-6.66-3.185-12.16-7.771-16.32-13.611-4.14-5.78-7.06-12.755-8.72-20.732-1.63-7.86-2.44-16.634-2.44-26.086v-69.143c0-8.936.96-17.445 2.86-25.319 1.91-7.963 4.97-14.923 9.11-20.688 4.14-5.81 9.61-10.514 16.28-13.98 6.65-3.465 14.76-5.22 24.09-5.22 9.34 0 17.43 1.755 24.1 5.22 6.65 3.466 12.14 8.17 16.28 13.994 4.11 5.737 7.18 12.697 9.11 20.674 1.92 7.904 2.88 16.427 2.88 25.319v69.143h-.03ZM1546.52 306.638h-3.74l-55.08-259.41h-51.21l62.76 278.034h90.8l62.74-278.033h-51.21l-55.06 259.409ZM1114.68 170.607l96-119.515V47.23h-58.69l-78.55 97.676h-2.49V47.229h-49.7v278.033h49.7V202.901h2.3l91.01 122.361h58.83v-4.085l-108.41-142.622v-7.948Z" stroke="#fff"/></svg>